<svg viewBox="0 0 16 16" xmlns="http://www.w3.org/2000/svg">
    <g fill="#e0e0e0">
        <path d="m7.38651,8.85149c0,-0.28685 -0.20791,-0.64006 -0.46166,-0.78322l-3.12979,-1.76917c-0.25429,-0.14369 -0.46166,-0.0256 -0.46166,0.26125l0,3.45579c0,0.28737 0.20791,0.64006 0.46166,0.78322l3.12979,1.76447c0.25429,0.14316 0.46166,0.0256 0.46166,-0.26177l0,-3.45056z"/>
        <path d="m8.38072,3.12336c-0.25429,-0.14264 -0.67063,-0.14264 -0.92545,-0.00104l-3.13245,1.74879c-0.25482,0.14212 -0.25535,0.3762 -0.00107,0.51988l3.66928,2.07379c0.25429,0.14369 0.46166,0.49585 0.46166,0.78374l0,4.05562c0,0.28737 0.20844,0.40546 0.46272,0.26334l3.14152,-1.76342c0.25482,-0.14212 0.46272,-0.49428 0.46272,-0.78165l0,-4.05353c0,-0.28685 -0.20844,-0.63901 -0.46272,-0.78165l-3.67621,-2.06386z"/>
    </g>
</svg>