<svg viewBox="0 0 16 16" xmlns="http://www.w3.org/2000/svg">
    <g fill="#e0e0e0">
        <path d="m7.91853,1.72516c0.06984,0 0.1402,0.01776 0.21004,0.05277l5.28508,2.96621a0.34118,0.3344 0 0 1 0.17219,0.29103l0,5.92093a0.36304,0.35582 0 0 1 -0.18658,0.29887l-5.28881,2.9683a0.38916,0.38142 0 0 1 -0.19191,0.0418a0.40995,0.4018 0 0 1 -0.20737,-0.05173l-5.26429,-2.96935a0.34758,0.34067 0 0 1 -0.18019,-0.30357l0,-5.92093c0,-0.11861 0.0709,-0.2346 0.18552,-0.30671l5.27495,-2.94531a0.42434,0.41591 0 0 1 0.19138,-0.04232m0,-1.04499c-0.24629,0 -0.50697,0.06009 -0.72181,0.18131l-5.28881,2.95263c-0.43074,0.25602 -0.70688,0.70798 -0.70688,1.2054l0,5.92145c0,0.49742 0.26122,0.94885 0.70688,1.2054l5.28881,2.98293c0.2303,0.1207 0.46059,0.18078 0.72181,0.18078s0.5075,-0.06009 0.72234,-0.18131l5.28828,-2.96778c0.44567,-0.25602 0.72234,-0.70798 0.72234,-1.20592l0,-5.9204c0,-0.49742 -0.27721,-0.96453 -0.72234,-1.20592l-5.28828,-2.96778a1.52731,1.49695 0 0 0 -0.72234,-0.18078z"/>
    </g>
</svg>