<svg viewBox="0 0 16 16" xmlns="http://www.w3.org/2000/svg">
    <g fill="#e0e0e0">
        <path d="m9.02926,5.37351c-1.40367,-0.57344 -3.0847,0.13561 -3.65629,1.53148c-0.58362,1.43019 0.10261,3.06956 1.53281,3.65509c0.33878,0.13867 0.6957,0.20914 1.05989,0.20914c1.14318,0 2.16098,-0.68373 2.59508,-1.7413c0.28219,-0.6922 0.27978,-1.45366 -0.00962,-2.1441c-0.28943,-0.69026 -0.82967,-1.22635 -1.52187,-1.51031zm0.3883,3.18655c-0.31943,0.78087 -1.25656,1.17818 -2.04387,0.85684c-0.79961,-0.32745 -1.18421,-1.24447 -0.85752,-2.04402c0.24249,-0.59153 0.81278,-0.97381 1.4519,-0.97381a1.55345,1.55345 0 0 1 0.59329,0.11764c0.38722,0.15852 0.68979,0.45824 0.85137,0.84414c0.16161,0.38589 0.1629,0.81211 0.00482,1.19921z"/>
        <path d="m14.62222,9.0515l-1.20106,-0.68617c0.01926,-0.27978 0.01815,-0.56018 -0.00482,-0.84052l1.19756,-0.69647c0.23984,-0.13988 0.35804,-0.4226 0.28569,-0.69153c-0.16882,-0.64097 -0.42689,-1.25532 -0.76452,-1.82694c-0.14099,-0.23999 -0.42448,-0.35037 -0.69461,-0.28099l-1.33485,0.36539a5.37483,5.37483 0 0 0 -0.59703,-0.59329l0.35457,-1.33852c0.06994,-0.2689 -0.04694,-0.5523 -0.28702,-0.6922c-0.58235,-0.33763 -1.1818,-0.58309 -1.83165,-0.75005c-0.27143,-0.07114 -0.5523,0.05 -0.68976,0.29184l-0.68626,1.20165a5.40882,5.40882 0 0 0 -0.84414,0.00306l-0.69567,-1.19691c-0.13882,-0.24052 -0.42339,-0.35748 -0.69111,-0.28634c-0.63188,0.16696 -1.26379,0.43107 -1.82573,0.76387c-0.23984,0.14176 -0.35454,0.42636 -0.28216,0.69458l0.36419,1.33561c-0.21225,0.18384 -0.41239,0.38469 -0.59441,0.59985l-1.33746,-0.35387c-0.27013,-0.07356 -0.55227,0.04582 -0.69214,0.28699a7.24529,7.24529 0 0 0 -0.75011,1.83056c-0.06994,0.26946 0.05067,0.5523 0.29184,0.68976l1.20238,0.68617c-0.02059,0.28152 -0.01929,0.56371 0.0035,0.84531l-1.19624,0.69638c-0.24116,0.13988 -0.35695,0.42327 -0.28702,0.69164c0.16884,0.63188 0.43307,1.26311 0.76693,1.82573c0.14232,0.23931 0.4258,0.35266 0.6935,0.28099l1.33617,-0.36539a5.34818,5.34818 0 0 0 0.59921,0.59385l-0.35454,1.33732c-0.07106,0.26893 0.04585,0.55297 0.28702,0.6922c0.59088,0.34192 1.17212,0.58003 1.83297,0.74949c0.05067,0.01326 0.10261,0.01929 0.15326,0.01929a0.61865,0.61865 0 0 0 0.5365,-0.31113l0.68629,-1.20294c0.27975,0.0205 0.56303,0.01876 0.84037,-0.00418l0.697,1.19682c0.13988,0.24064 0.42339,0.35816 0.69217,0.28643a7.23044,7.23044 0 0 0 1.82573,-0.76576c0.23878,-0.14173 0.35457,-0.42569 0.28107,-0.69405l-0.36545,-1.33614a5.54352,5.54352 0 0 0 0.59221,-0.59626l1.33723,0.35334c0.26658,0.06873 0.55227,-0.04703 0.69217,-0.28646c0.33763,-0.5818 0.58365,-1.18112 0.75005,-1.83297c0.06888,-0.26937 -0.05064,-0.55156 -0.29181,-0.68905zm-1.30717,1.48984l-1.25897,-0.33216c-0.24472,-0.06391 -0.50759,0.02891 -0.65714,0.23569c-0.25693,0.35695 -0.56806,0.66994 -0.92501,0.93163c-0.20499,0.15073 -0.29663,0.4136 -0.22914,0.66017l0.34248,1.25532a5.9198,5.9198 0 0 1 -0.65841,0.27616l-0.65362,-1.12445c-0.12891,-0.22134 -0.38345,-0.34192 -0.63188,-0.29907c-0.4293,0.06997 -0.87063,0.07532 -1.31441,0.00659c-0.25431,-0.03553 -0.50165,0.08267 -0.62947,0.3039l-0.64506,1.13059a5.72063,5.72063 0 0 1 -0.65973,-0.26958l0.33281,-1.25776a0.61826,0.61826 0 0 0 -0.23634,-0.65897c-0.35695,-0.25628 -0.6705,-0.56797 -0.93337,-0.92557c-0.15193,-0.20623 -0.41242,-0.29546 -0.66082,-0.23034l-1.25526,0.34313c-0.10499,-0.2129 -0.19667,-0.43357 -0.27628,-0.6572l1.12392,-0.65426c0.22187,-0.12838 0.34007,-0.38039 0.29907,-0.63244c-0.06994,-0.43771 -0.07238,-0.88028 -0.00482,-1.31629c0.03859,-0.25258 -0.08203,-0.50339 -0.3039,-0.63003l-1.12983,-0.64462c0.07588,-0.22484 0.16749,-0.44495 0.27013,-0.65894l1.25656,0.33216c0.24952,0.06511 0.51,-0.02829 0.65953,-0.23637c0.25805,-0.35816 0.56921,-0.67223 0.92613,-0.93269c0.20631,-0.1514 0.29904,-0.41427 0.23152,-0.6615l-0.34357,-1.25467a6.26081,6.26081 0 0 1 0.65711,-0.2756l0.65494,1.12506c0.12782,0.22014 0.37251,0.33645 0.63294,0.29904a4.17744,4.17744 0 0 1 1.31444,-0.00538c0.25081,0.03862 0.50295,-0.082 0.62944,-0.3039l0.64529,-1.12992c0.22537,0.07653 0.44486,0.16576 0.6595,0.27013l-0.33281,1.25829a0.61891,0.61891 0 0 0 0.23525,0.65841a4.20532,4.20532 0 0 1 0.93204,0.92557c0.15193,0.20675 0.4148,0.29722 0.66082,0.2309l1.25417,-0.34304c0.10608,0.21343 0.19778,0.43348 0.27628,0.65776l-1.12524,0.65482c-0.22058,0.12849 -0.34007,0.37986 -0.29907,0.63256c0.06994,0.43654 0.07238,0.8779 0.00615,1.31135c-0.03988,0.25269 0.082,0.50353 0.3039,0.63015l1.1298,0.6457c-0.07582,0.22672 -0.1664,0.44445 -0.27008,0.65964z"/>
    </g>
</svg>