<svg viewBox="0 0 16 16" xmlns="http://www.w3.org/2000/svg">
    <g fill="#e0e0e0">
        <path d="m12.76157,2.5362c-0.75923,-0.31017 -1.66847,0.07335 -1.97764,0.82835c-0.31567,0.77357 0.0555,1.66028 0.82907,1.97698c0.18324,0.075 0.3763,0.11311 0.57328,0.11311c0.61833,0 1.16885,-0.36982 1.40364,-0.94184c0.15263,-0.3744 0.15133,-0.78627 -0.0052,-1.15972c-0.15655,-0.37335 -0.44876,-0.66331 -0.82315,-0.8169l0,0.00001zm0.21003,1.72356c-0.17277,0.42236 -0.67966,0.63726 -1.1055,0.46345c-0.43249,-0.17711 -0.64052,-0.67311 -0.46382,-1.10558c0.13116,-0.31995 0.43963,-0.52672 0.78531,-0.52672a0.84024,0.84024 0 0 1 0.3209,0.06363c0.20944,0.08574 0.3731,0.24786 0.4605,0.45658c0.08741,0.20873 0.08811,0.43926 0.00261,0.64863l0,0.00001z"/>
        <path d="m15.78672,4.52558l-0.64963,-0.37114c0.01042,-0.15133 0.00981,-0.30299 -0.00261,-0.45463l0.64774,-0.37671c0.12973,-0.07566 0.19365,-0.22858 0.15453,-0.37404c-0.09131,-0.34669 -0.2309,-0.67899 -0.41352,-0.98816c-0.07626,-0.12981 -0.2296,-0.1895 -0.37571,-0.15198l-0.722,0.19763a2.90717,2.90717 0 0 0 -0.32292,-0.3209l0.19178,-0.72399c0.03782,-0.14545 -0.02539,-0.29873 -0.15524,-0.3744c-0.31499,-0.18262 -0.63922,-0.31538 -0.99071,-0.40569c-0.14681,-0.03848 -0.29873,0.02704 -0.37308,0.15785l-0.37119,0.64995a2.92556,2.92556 0 0 0 -0.45658,0.00165l-0.37628,-0.64739c-0.07508,-0.1301 -0.22901,-0.19335 -0.37382,-0.15488c-0.34177,0.09031 -0.68357,0.23316 -0.98751,0.41317c-0.12973,0.07668 -0.19176,0.23061 -0.15262,0.37569l0.19698,0.72241c-0.1148,0.09944 -0.22306,0.20808 -0.32151,0.32445l-0.72341,-0.1914c-0.14611,-0.03979 -0.29872,0.02478 -0.37437,0.15523a3.91887,3.91887 0 0 0 -0.40572,0.99012c-0.03782,0.14575 0.02741,0.29873 0.15785,0.37308l0.65035,0.37114c-0.01113,0.15227 -0.01043,0.3049 0.00189,0.45722l-0.64702,0.37666c-0.13045,0.07566 -0.19307,0.22894 -0.15524,0.3741c0.09132,0.34177 0.23424,0.6832 0.41482,0.98751c0.07698,0.12944 0.23031,0.19074 0.3751,0.15198l0.72271,-0.19763a2.89275,2.89275 0 0 0 0.3241,0.32121l-0.19176,0.72333c-0.03843,0.14546 0.0248,0.2991 0.15524,0.3744c0.3196,0.18494 0.63398,0.31373 0.99142,0.40539c0.02741,0.00717 0.0555,0.01043 0.08289,0.01043a0.33461,0.33461 0 0 0 0.29019,-0.16829l0.37121,-0.65065c0.15131,0.01109 0.30454,0.01015 0.45455,-0.00226l0.377,0.64734c0.07566,0.13016 0.22901,0.19372 0.37439,0.15492a3.91084,3.91084 0 0 0 0.98751,-0.41418c0.12916,-0.07666 0.19178,-0.23025 0.15203,-0.37541l-0.19766,-0.7227a2.99841,2.99841 0 0 0 0.32032,-0.32251l0.72329,0.19111c0.14419,0.03717 0.29872,-0.02543 0.37439,-0.15494c0.18262,-0.31468 0.31569,-0.63885 0.40569,-0.99142c0.03725,-0.1457 -0.02739,-0.29833 -0.15784,-0.3727l-0.00002,0.00003zm-0.70703,0.80583l-0.68096,-0.17966c-0.13237,-0.03456 -0.27454,0.01564 -0.35544,0.12749c-0.13897,0.19307 -0.30726,0.36236 -0.50032,0.5039c-0.11087,0.08153 -0.16044,0.22371 -0.12394,0.35707l0.18524,0.67899a3.20193,3.20193 0 0 1 -0.35612,0.14937l-0.35353,-0.6082c-0.06972,-0.11973 -0.20741,-0.18494 -0.34177,-0.16176c-0.2322,0.03784 -0.47091,0.04074 -0.71094,0.00356c-0.13756,-0.01921 -0.27133,0.04472 -0.34047,0.16437l-0.3489,0.61152a3.09421,3.09421 0 0 1 -0.35683,-0.14581l0.18001,-0.68031a0.33441,0.33441 0 0 0 -0.12784,-0.35642c-0.19307,-0.13862 -0.36267,-0.30721 -0.50484,-0.50063c-0.08218,-0.11154 -0.22307,-0.15981 -0.35742,-0.12459l-0.67896,0.18559c-0.05679,-0.11515 -0.10637,-0.23451 -0.14944,-0.35547l0.60791,-0.35388c0.12001,-0.06944 0.18394,-0.20575 0.16176,-0.34207c-0.03782,-0.23675 -0.03914,-0.47613 -0.00261,-0.71196c0.02087,-0.13662 -0.04437,-0.27227 -0.16437,-0.34077l-0.61111,-0.34866c0.04105,-0.12162 0.09059,-0.24067 0.14611,-0.35641l0.67966,0.17966c0.13496,0.03522 0.27585,-0.0153 0.35672,-0.12785c0.13958,-0.19372 0.30788,-0.3636 0.50093,-0.50447c0.11159,-0.08189 0.16175,-0.22408 0.12523,-0.35779l-0.18583,-0.67864a3.38639,3.38639 0 0 1 0.35542,-0.14907l0.35424,0.60853c0.06914,0.11906 0.20149,0.18198 0.34234,0.16175a2.25951,2.25951 0 0 1 0.71096,-0.00291c0.13566,0.02088 0.27203,-0.04435 0.34045,-0.16437l0.34903,-0.61116c0.1219,0.0414 0.24062,0.08965 0.35671,0.14611l-0.18001,0.6806a0.33476,0.33476 0 0 0 0.12725,0.35612a2.2746,2.2746 0 0 1 0.50412,0.50063c0.08218,0.11183 0.22436,0.16076 0.35742,0.12489l0.67837,-0.18554c0.05738,0.11544 0.10698,0.23446 0.14944,0.35577l-0.60863,0.35418c-0.11931,0.0695 -0.18394,0.20547 -0.16176,0.34214c0.03782,0.23612 0.03914,0.47484 0.00332,0.70929c-0.02157,0.13668 0.04435,0.27235 0.16437,0.34083l0.61109,0.34925c-0.04101,0.12264 -0.09,0.2404 -0.14608,0.35679l0.00002,0z"/>
        <path d="m5.56035,8.12931c-1.24541,0 -2.25818,1.01313 -2.25818,2.25855c0,1.24539 1.01278,2.25887 2.25818,2.25887c1.24543,0 2.25956,-1.01348 2.25956,-2.25887c0,-1.24543 -1.01413,-2.25855 -2.25956,-2.25855zm0,3.81669c-0.85873,0 -1.55745,-0.69906 -1.55745,-1.55813c0,-0.85918 0.69872,-1.55785 1.55745,-1.55785c0.85949,0 1.55883,0.69866 1.55883,1.55785c0,0.85907 -0.69934,1.55813 -1.55883,1.55813z"/>
        <path d="m10.70901,9.32886l-1.16465,-0.15259a4.14525,4.14525 0 0 0 -0.30931,-0.74688l0.71578,-0.9317a0.34901,0.34901 0 0 0 0.00136,-0.42494a5.50825,5.50825 0 0 0 -1.07435,-1.07466c-0.1259,-0.09549 -0.2997,-0.09481 -0.42426,0.00136l-0.93202,0.71578a4.11938,4.11938 0 0 0 -0.74725,-0.30998l-0.15254,-1.16469c-0.01991,-0.15639 -0.14308,-0.27988 -0.2991,-0.30145c-0.51931,-0.07217 -0.99907,-0.07285 -1.51914,-0.00068a0.35031,0.35031 0 0 0 -0.2997,0.30145l-0.15192,1.16399c-0.25928,0.07868 -0.51049,0.18233 -0.74999,0.31067l-0.93197,-0.71645c-0.12454,-0.09618 -0.29837,-0.0965 -0.42427,-0.00173c-0.40099,0.30314 -0.77189,0.67441 -1.07436,1.07403c-0.0958,0.1259 -0.09442,0.29972 0.00139,0.42494l0.71576,0.93133a4.11293,4.11293 0 0 0 -0.31136,0.75029l-1.16399,0.15229c-0.15603,0.02016 -0.27989,0.14301 -0.30109,0.29935a5.53499,5.53499 0 0 0 0,1.51885c0.02122,0.15631 0.14506,0.27919 0.30109,0.29935l1.16399,0.15227a4.11293,4.11293 0 0 0 0.31136,0.75029l-0.71578,0.93133c-0.09581,0.12524 -0.09716,0.29904 -0.00139,0.42497c0.30247,0.40001 0.67405,0.77119 1.07436,1.07401c0.1259,0.09513 0.29972,0.09408 0.42427,-0.00173l0.93197,-0.71647c0.2395,0.12834 0.49071,0.23198 0.74999,0.31067l0.15192,1.164a0.35027,0.35027 0 0 0 0.2997,0.30178c0.25942,0.03556 0.50775,0.05267 0.75821,0.05267c0.25182,0 0.50091,-0.01741 0.76094,-0.05369c0.15603,-0.02158 0.27919,-0.14505 0.2991,-0.30145l0.15254,-1.16465a4.12055,4.12055 0 0 0 0.74725,-0.3103l0.93202,0.71576c0.12455,0.09544 0.29835,0.0965 0.42426,0.00169c0.40508,-0.30656 0.76717,-0.66789 1.07435,-1.07466a0.34901,0.34901 0 0 0 -0.00136,-0.42494l-0.71578,-0.93169a4.14675,4.14675 0 0 0 0.30931,-0.74688l1.16465,-0.15263c0.15603,-0.02051 0.27919,-0.14299 0.30109,-0.29939c0.07116,-0.51187 0.07116,-1.00896 0,-1.51944c-0.02188,-0.15641 -0.14506,-0.27889 -0.30107,-0.29944l0,-0.00002zm-0.36331,1.45931l-1.12361,0.14712c-0.1437,0.01879 -0.2614,0.12415 -0.295,0.26549a3.46744,3.46744 0 0 1 -0.41059,0.99121c-0.07664,0.12385 -0.06769,0.2816 0.02052,0.39657l0.69113,0.89878a4.77518,4.77518 0 0 1 -0.56585,0.56591l-0.89856,-0.69045c-0.11494,-0.08792 -0.27234,-0.09648 -0.39687,-0.02085a3.43771,3.43771 0 0 1 -0.99225,0.41195a0.34897,0.34897 0 0 0 -0.26474,0.29493l-0.14718,1.12395c-0.26886,0.02295 -0.53101,0.0226 -0.79989,0.00035l-0.14718,-1.1233c-0.01843,-0.14403 -0.12454,-0.26142 -0.26549,-0.29523c-0.35037,-0.08387 -0.68429,-0.2224 -0.99361,-0.41166c-0.12318,-0.07526 -0.28058,-0.06736 -0.3969,0.02091l-0.89846,0.69078a4.9269,4.9269 0 0 1 -0.56523,-0.56488l0.69047,-0.89847c0.08828,-0.11497 0.09716,-0.27271 0.02052,-0.3966c-0.18886,-0.30928 -0.32846,-0.64392 -0.41195,-0.99459a0.35109,0.35109 0 0 0 -0.29562,-0.2655l-1.12293,-0.14681a4.87433,4.87433 0 0 1 0,-0.79956l1.12293,-0.1468a0.35109,0.35109 0 0 0 0.29562,-0.26553c0.0835,-0.35065 0.2231,-0.68529 0.41195,-0.99459c0.07664,-0.12387 0.06776,-0.28163 -0.02052,-0.39659l-0.69047,-0.89849a4.92808,4.92808 0 0 1 0.56523,-0.56486l0.89846,0.69078c0.11632,0.08865 0.27372,0.09716 0.3969,0.02089c0.3093,-0.18923 0.64323,-0.32778 0.99361,-0.41164c0.14096,-0.03385 0.24707,-0.15124 0.26549,-0.29525l0.14718,-1.12331c0.26886,-0.02258 0.53026,-0.02289 0.79989,0.00037l0.14718,1.12393a0.34897,0.34897 0 0 0 0.26474,0.29493a3.43763,3.43763 0 0 1 0.99225,0.41195c0.12454,0.07596 0.28193,0.06813 0.39687,-0.02085l0.89856,-0.69083c0.20392,0.17281 0.39341,0.36198 0.56585,0.5663l-0.69113,0.89878c-0.08822,0.11497 -0.09716,0.27273 -0.02052,0.3966a3.46711,3.46711 0 0 1 0.41059,0.99116c0.0336,0.14134 0.15128,0.24671 0.295,0.2655l1.12361,0.14713a4.5943,4.5943 0 0 1 0,0.80034l0,0.00005z"/>
        <path d="m13.11935,12.48414c-0.50666,-0.20699 -1.11343,0.04895 -1.31975,0.55279c-0.21066,0.51623 0.03704,1.10796 0.55327,1.31931c0.12228,0.05005 0.25112,0.07549 0.38257,0.07549c0.41263,0 0.78001,-0.24679 0.9367,-0.62852c0.10185,-0.24985 0.10099,-0.5247 -0.00347,-0.77392c-0.10447,-0.24915 -0.29947,-0.44265 -0.54932,-0.54515l0,0.00001zm0.14016,1.15019c-0.1153,0.28186 -0.45356,0.42527 -0.73774,0.30928c-0.28862,-0.11819 -0.42744,-0.44919 -0.30952,-0.73779c0.08753,-0.21351 0.29338,-0.3515 0.52406,-0.3515a0.56072,0.56072 0 0 1 0.21415,0.04246c0.13976,0.05722 0.24898,0.16541 0.30731,0.30469c0.05833,0.13929 0.0588,0.29313 0.00174,0.43285l0,0.00001z"/>
        <path d="m15.13797,13.81175l-0.43352,-0.24767c0.00695,-0.10099 0.00655,-0.20219 -0.00174,-0.30339l0.43226,-0.25139c0.08657,-0.05049 0.12923,-0.15254 0.10312,-0.24961c-0.06094,-0.23136 -0.15409,-0.45311 -0.27596,-0.65944c-0.05089,-0.08662 -0.15322,-0.12646 -0.25072,-0.10142l-0.48182,0.13189a1.94005,1.94005 0 0 0 -0.2155,-0.21415l0.12798,-0.48314c0.02524,-0.09706 -0.01695,-0.19935 -0.1036,-0.24985c-0.2102,-0.12187 -0.42657,-0.21046 -0.66114,-0.27073c-0.09797,-0.02568 -0.19935,0.01805 -0.24897,0.10534l-0.24771,0.43374a1.95233,1.95233 0 0 0 -0.30469,0.0011l-0.2511,-0.43203c-0.0501,-0.08682 -0.15283,-0.12903 -0.24946,-0.10336c-0.22808,0.06027 -0.45617,0.1556 -0.659,0.27572c-0.08657,0.05117 -0.12797,0.15389 -0.10185,0.25071l0.13145,0.48209c-0.07661,0.06636 -0.14885,0.13886 -0.21456,0.21652l-0.48276,-0.12773c-0.0975,-0.02655 -0.19934,0.01654 -0.24983,0.10359a2.6152,2.6152 0 0 0 -0.27075,0.66074c-0.02524,0.09726 0.01829,0.19935 0.10534,0.24897l0.434,0.24767c-0.00743,0.10161 -0.00696,0.20347 0.00126,0.30512l-0.43178,0.25136c-0.08705,0.05049 -0.12885,0.15278 -0.1036,0.24965c0.06094,0.22808 0.15632,0.45592 0.27683,0.659c0.05137,0.08638 0.15369,0.12729 0.25032,0.10142l0.48229,-0.13189a1.93044,1.93044 0 0 0 0.21628,0.21435l-0.12797,0.4827c-0.02565,0.09707 0.01655,0.1996 0.1036,0.24985c0.21328,0.12342 0.42308,0.20936 0.66161,0.27053c0.01829,0.00479 0.03704,0.00696 0.05532,0.00696a0.2233,0.2233 0 0 0 0.19365,-0.11231l0.24772,-0.4342c0.10097,0.0074 0.20323,0.00677 0.30334,-0.00151l0.25158,0.43199c0.05049,0.08686 0.15283,0.12928 0.24984,0.10338a2.60984,2.60984 0 0 0 0.659,-0.2764c0.08619,-0.05116 0.12798,-0.15365 0.10145,-0.25052l-0.13191,-0.48228a2.00094,2.00094 0 0 0 0.21376,-0.21522l0.48268,0.12754c0.09622,0.02481 0.19934,-0.01697 0.24984,-0.1034c0.12187,-0.21 0.21067,-0.42633 0.27073,-0.66161c0.02486,-0.09723 -0.01828,-0.19908 -0.10533,-0.24871l-0.00001,0.00002zm-0.47183,0.53776l-0.45443,-0.1199c-0.08833,-0.02307 -0.18321,0.01044 -0.2372,0.08508c-0.09274,0.12885 -0.20504,0.24181 -0.33388,0.33627c-0.07399,0.05441 -0.10707,0.14929 -0.08271,0.23829l0.12362,0.45311a2.13676,2.13676 0 0 1 -0.23765,0.09968l-0.23593,-0.40587c-0.04653,-0.0799 -0.13841,-0.12342 -0.22808,-0.10795c-0.15495,0.02526 -0.31425,0.02718 -0.47443,0.00238c-0.0918,-0.01282 -0.18107,0.02984 -0.22721,0.10969l-0.23284,0.40809a2.06487,2.06487 0 0 1 -0.23813,-0.0973l0.12013,-0.45399a0.22316,0.22316 0 0 0 -0.08531,-0.23785c-0.12885,-0.0925 -0.24202,-0.20501 -0.3369,-0.33409c-0.05484,-0.07444 -0.14886,-0.10665 -0.23852,-0.08314l-0.45309,0.12385c-0.0379,-0.07685 -0.07099,-0.1565 -0.09973,-0.23722l0.40568,-0.23616c0.08008,-0.04634 0.12275,-0.1373 0.10795,-0.22828c-0.02524,-0.15799 -0.02612,-0.31774 -0.00174,-0.47512c0.01393,-0.09117 -0.02961,-0.1817 -0.10969,-0.22741l-0.40781,-0.23268c0.02739,-0.08116 0.06045,-0.16061 0.0975,-0.23785l0.45356,0.1199c0.09006,0.02351 0.18409,-0.01021 0.23805,-0.08532c0.09314,-0.12928 0.20546,-0.24264 0.33429,-0.33665c0.07447,-0.05465 0.10794,-0.14954 0.08357,-0.23877l-0.12401,-0.45288a2.25985,2.25985 0 0 1 0.23719,-0.09948l0.2364,0.40609c0.04614,0.07946 0.13446,0.12144 0.22846,0.10794a1.50785,1.50785 0 0 1 0.47445,-0.00194c0.09053,0.01394 0.18154,-0.02959 0.2272,-0.10969l0.23292,-0.40785c0.08135,0.02762 0.16057,0.05983 0.23805,0.0975l-0.12013,0.45419a0.2234,0.2234 0 0 0 0.08492,0.23765a1.51792,1.51792 0 0 1 0.33642,0.33409c0.05484,0.07463 0.14972,0.10728 0.23852,0.08334l0.4527,-0.12382c0.03829,0.07704 0.07139,0.15646 0.09973,0.23742l-0.40616,0.23636c-0.07962,0.04638 -0.12275,0.13711 -0.10795,0.22832c0.02524,0.15757 0.02612,0.31688 0.00222,0.47333c-0.0144,0.09121 0.02959,0.18175 0.10969,0.22745l0.4078,0.23307c-0.02736,0.08184 -0.06006,0.16043 -0.09748,0.2381l0.00001,0z"/>
    </g>
</svg>